/* XPM */
static char *_59e40c994464a9e83bef06e9e96a449udAk1Ecbto5bvlag[] = {
/* columns rows colors chars-per-pixel */
"100 70 188 2 ",
"   c None",
".  c #050403",
"X  c #080706",
"o  c #0C0906",
"O  c #0D0C0C",
"+  c #120A06",
"@  c #130F0C",
"#  c #1A0E09",
"$  c #16100D",
"%  c #1D120C",
"&  c #141413",
"*  c #1D1411",
"=  c #1B1B1B",
"-  c #24140E",
";  c #2A160E",
":  c #2B180F",
">  c #30170F",
",  c #231511",
"<  c #2C1710",
"1  c #241915",
"2  c #2D1A12",
"3  c #251D1A",
"4  c #291E1A",
"5  c #341C13",
"6  c #3B1E14",
"7  c #331F19",
"8  c #2D231D",
"9  c #362114",
"0  c #3E2115",
"q  c #33221C",
"w  c #3B241A",
"e  c #302818",
"r  c #3C281F",
"t  c gray14",
"y  c #2B2422",
"u  c #2F2825",
"i  c #2D2C2C",
"p  c #342721",
"a  c #392720",
"s  c #352924",
"d  c #3B2A23",
"f  c #332D2B",
"g  c #3A2E2A",
"h  c #343026",
"j  c #36302F",
"k  c #39312E",
"l  c #2F3030",
"z  c #343333",
"x  c #3B3532",
"c  c #3C3835",
"v  c #3C3B3A",
"b  c #422217",
"n  c #452518",
"m  c #492619",
"M  c #452B1B",
"N  c #4C2A1B",
"B  c #522E1D",
"V  c #4E311F",
"C  c #55301E",
"Z  c #58321F",
"A  c #413026",
"S  c #493122",
"D  c #43332D",
"F  c #4D3C28",
"G  c #543421",
"H  c #5C3421",
"J  c #523925",
"K  c #5B3924",
"L  c #543C2C",
"P  c #5B3D2B",
"I  c #443631",
"U  c #423935",
"Y  c #443E3B",
"T  c #4B3E39",
"R  c #603722",
"E  c #633A24",
"W  c #6A3E26",
"Q  c #643E28",
"!  c #6B3F28",
"~  c #5B422E",
"^  c #45413F",
"/  c #4B423E",
"(  c #5E4B32",
")  c #5E4739",
"_  c #5F493C",
"`  c #6C4127",
"'  c #63412D",
"]  c #6D4229",
"[  c #73452B",
"{  c #76482D",
"}  c #794A2E",
"|  c #7A4B2F",
" . c #78492D",
".. c #7C4C2F",
"X. c #7A4B2F",
"o. c #654431",
"O. c #644937",
"+. c #6D4934",
"@. c #614C3E",
"#. c #764D30",
"$. c #7B4C30",
"%. c #7C4D30",
"&. c #7F4F32",
"*. c #7E4F31",
"=. c #7D4E31",
"-. c #615535",
";. c #775034",
":. c #7F5033",
">. c #75593B",
",. c #474241",
"<. c #454242",
"1. c #4B4645",
"2. c #4A4543",
"3. c #4E4946",
"4. c #4D4B4B",
"5. c #514744",
"6. c #534641",
"7. c #534A46",
"8. c #5B4D44",
"9. c #554B48",
"0. c #544E4C",
"q. c #534E4B",
"w. c #594E4A",
"e. c #57504A",
"r. c #57514E",
"t. c #5A514D",
"y. c #545252",
"u. c #585250",
"i. c #5C5654",
"p. c #5B5553",
"a. c #5E5955",
"s. c #5E5B59",
"d. c #5D5C5B",
"f. c #615046",
"g. c #695245",
"h. c #65544A",
"j. c #69564B",
"k. c #635956",
"l. c #635D5C",
"z. c #625D5B",
"x. c #7F6842",
"c. c #65615F",
"v. c #66615F",
"b. c #6D615B",
"n. c #73675F",
"m. c #7C745F",
"M. c #646261",
"N. c #6D6663",
"B. c #696866",
"V. c #6E6C6B",
"C. c #6D6A6A",
"Z. c #716762",
"A. c #716C60",
"S. c #786B63",
"D. c #7A6D64",
"F. c #716C6B",
"G. c #726F6D",
"H. c #72706F",
"J. c #757474",
"K. c #757372",
"L. c #7B7776",
"P. c #7C7C7B",
"I. c #7B7A79",
"U. c #804F32",
"Y. c #804F32",
"T. c #805032",
"R. c #815032",
"E. c #815033",
"W. c #815133",
"Q. c #825133",
"!. c #835234",
"~. c #825234",
"^. c #825134",
"/. c #835234",
"(. c #855C3B",
"). c #885B3B",
"_. c #8D603C",
"`. c #866744",
"'. c #866C44",
"]. c #837149",
"[. c #907048",
"{. c #917A4C",
"}. c #9C7D4D",
"|. c #857852",
" X c #83775B",
".X c #837972",
"XX c #817F7E",
"oX c #8E897D",
/* pixels */
"                                                                                                                                                                                                        ",
"                                                                                                                                                                                                        ",
"                                                                                                                                                                                                        ",
"                                                                                                                                                                                                        ",
"                                                                                                                                                                                                        ",
"                                                                                                                                                                                                        ",
"                                                                                                                                                                                                        ",
"                                                                                                                                                                                                        ",
"                                                                                                                                                                                                        ",
"                                                                                                                                                                                                        ",
"                                                                            x j j z z x M.                                      s.c j j j j j j 1.                                                      ",
"                                                                          9.1 - ; , < , Y                                     z.U , - - , - , - s i.                                                    ",
"                                                                      1.k a 0 6 5 6 6 6 w j c L.                        ,.f z f w 9 6 6 6 6 6 6 w g z v.                                                ",
"                                                                    5.1 2 b B C C C Z B M 2 < Y V.P.P.J.J.J.J.J.J.J.K.r.8 < - 2 m B C C C C C B N 5 < s F.                                              ",
"                                                            4.y y s a 0 b G E W W W W W Z b 6 r f f f f f f j f f f f s 0 6 6 n Z W E W W W W W E m 6 w f f ,.                                          ",
"                                                          r.g < < , b C H ] { { | {  .[ ] H C b 2 , - , - - - - - - - 0 N Z C H ]  . . . . .| [ [ E C N 5 < s 0.                                        ",
"                                        i.w.e.        l.Y g w 6 0 n Z E ] | :.Q.E.E.E.E.{ ] ` Z n 6 0 6 b 0 0 6 6 6 b N E W ` ` | U.U.U.U.E.E.E...[ W E m 6 5 s x l.                                    ",
"                                      D.S M V h.      p ; 5 N Z Z Z ]  .| *.Q.!.Q.Q.Q.!.:.| { ` H Z Z Z Z Z Z Z Z Z Z E [ .. ...Y.!.!.!.!.!.!.!.E... .[ R B b 2 ; s                                     ",
"                                    s.L ] ] ] P 8 8 q 9 6 N R W W ]  .R.R.R.!.!.Q.!.!.!.E.E.E.| ] W ] W W W ] W ` ` ` [ ..R.R.R.!.!.!.!.!.!.!.!.!.E.U.| [ H N 6 5 5 f                                   ",
"                                    u S #.| $.K - $ 2 0 B E [ |  .| R.!.!.Q.!.!.!.!.!.!.!.!.Q.E.| |  .|  .|  . .| |  ...E.!.!.R.!.!.!.!.!.!.!.!.!.!.!.E.| W Z m b 5 ,                                   ",
"                                  v $ N { ] { E : - > n Z ] ..E.R.E.!.!.!.!.!.!.!.!.!.!.!.!.!.Q.E.E.R.R.R.R.R.R.R.R.R.E.!.!.!.!.!.!.!.!.!.!.!.!.!.!.!.E.E.| W B m 5 <                                   ",
"                                n.9 % M ] E W ' V 5 : b Z [ E.!.!.!.!.!.!.!.!.!.!.!.!.!.!.!.!.!.!.!.!.!.!.!.!.!.!.!.!.!.!.!.!.!.!.!.!.!.!.!.!.!.!.!.!.!./.=.[ E B 0 5 r.                                ",
"                              b.L M : V ! H H [ ` w ; m E  .E.E.!.!.!.!.!.!.!.!.!.!.!.!.!.!.!.!.!.!.!.!.!.!.!.!.!.!.!.!.!.!.!.!.!.!.!.!.!.!.!.!.!.!.!.!./.E.=.] H b 6 q M.                              ",
"                              g.E Z w H ! B Z [ [ C 0 B ] ..E.!.!.!.!.!.!.!.!.!.!.!.!.!.!.!.!.!.!.!.!.!.!.!.!.!.!.!.!.!.!.!.!.!.!.!.!.!.!.!.!.!.!.!.!.!./.!.=.[ H n 6 < q.                              ",
"                            j.+.{ Q C Q [ H E { $.R B !  .E.E.!.!.!.!.!.!.!.!.!.!.!.!.!.!.!.!.!.!.!.!.!.!.!.!.!.!.!.!.!.!.!.!.!.!.!.!.!.!.!.!.!.!.!.!.!.!.!.U.[ H b b ; ,.                              ",
"                          S.o.| $.[ Q [ | [ { $.$.] W { R.!.!.!.!.!.!.!.!.!.!.!.!.!.!.!.!.!.!.!.!.!.!.!.!.!.!.!.!.!.!.!.!.!.!.!.!.!.!.!.!.!.!.!.!.!.!.!.!.Y.U.[ H m 6 ; ,.                              ",
"                        Z.O.$.U.Y.| [ | U.U.U.!.Y.| { $.!.!.!.!.!.!.!.!.!.!.!.!.!.!.!.!.Q.E.E.Q.!.!.!.!.!.!.!.!.!.!.!.!.!.!.!.!.!.!.!.!.!.!.!.!.!.!.!.!.!.!.U.! H m b - ,.                              ",
"                        j.] =./.!.U.U.U.!.!.!.!./.U.=.U.!.!.!.!.!.!.!.!.!.!.!.!.!.!.!.!.*.| *.Q.!.!.!.!.!.!.!.!.!.!.!.!.!.!.!.!.!.!.!.!.!.!.!.!.!.!.!.!.!.!.U.[ H b 6 ; ,.                              ",
"                      2.P ! =./.!.!.Y.!.!.!.!.!./.Y.E././.E.R...R.E.!.!.!.!.!.!.!.!.!.!...[ ..!.!.!.!.!.!.!.!.!.!.!.!.!.!.!.!.!.!.!.!.!.!.!.!.!.!.!.!.!.!.!.Y.[ H m b - <.                              ",
"                      8 n E { U.!.!.!.!.!.!.!.!.!./././.E.=. .[  .R.!.!.!.!.!.!.!.!.!.!... ...Q.!.!.!.!.!.!.!.!.!.!.!.!.!.!.!.!.!.!.!.!.!.!.!.!.!.!.!.!.!.!.U.[ H n 6 , ^                               ",
"                      * : N W | Y.!.!.!.!.!.!.!.!.Y.=.=.U.| ] ] ` R.!.!.!.!.!.!.!.!.!.Q... ...Q.!.!.!.!.!.!.!.!.!.!.!.!.!.!.!.!.!.!.!.!.!.!.!.!.!.!.!.!.!.!.U.[ H n 6 < ^                               ",
"                      $ # 6 H ] U.!.!.!.!.!.!.Y.Y.$.{ [ [ [ W Z E ..!.!.!.!.!.!.!.!.!.Q.| [ ..!.!.!.!.!.!.!.!.!.!.!.!.!.!.!.!.!.!.!.!.!.!.!.Y.!.!.!.!.!.!.Y.U.[ Z m 6 < Y                               ",
"                      $ - 0 Z ] =.!.!.!.!.Y.Y.$.| [ E R E R R B Z | /././././.^.!.!.!.!.*.[  ...R.Q.!.!.!.!.!.!.!.!.!.!.!.!.!.!.!.!.!.!.!.Q.=.:.E.!.!.!.!.!.E.` Z m 6 ; Y                               ",
"                      3 9 Z E  .Y.!.!.!.!.Y. .{ ] R B B B B B N C | /./././.^.^.!.!.!.!...] [ | E.Q.!.!.!.!.!.!.!.!.!.!.!.!.!.!.!.!.!.!.Q.E.| | E.!.!.!.!.!.:.[ Z m b ; c                               ",
"                      e Z [  .:.Y.!.!.!.Y.Y.! E R B m b b b m b H  ././.!.!.!.!.!.!.!.!. .` `  .E.!.!.!.!.!.!.!.!.!.!.!.!.!.!.!.!.!.!.!.E. .] [ E.!.!.!.!.!...[ R m b : f                               ",
"                      r ' *.E.Q.!.!.!.Y.Y.[ R B N m 6 b b b b b C  ././.!.!.!.!.!.!.!.Q.[ Z K [ E.!.!.!.!.!.!.!.!.!.!.!.!.!.!.!.!.!.!.E.| ] Z W ..!.!.!.!.E.E.[ Z N b 6 w i.                            ",
"                    oX( #.:.Q.~.!.!.!.Y.[ E B m b 5 : ; ; > b b Z  ././.!.!.!.!.!.!.!.Q.] C Z [ ..E.!.!.!.!.!.!.!.!.!.!.!.!.!.!.!.!.E...[ Z B E .././.!.!.!.=.[ R B m b 5 y                             ",
"                     X'.(.~.Q.Q.!.!.Y. .W C b 6 6 7 p p p q 6 6 B #././.!.!.!.!.!.!.!.Q.] C Z W [ ..Q.Q.!.!.!.!.!.!.!.!.!.!.!.!.!.Q.R. .E B m E =./././.!.!.U.[ W H N b 5 *                             ",
"                   X].oX_.Q.~.Q.Y.Y.=.! H m 5 5 q U 0.y.y.Y a < N +././.!.!.!.!.!.!.!.!.[ Z N C E [ ..E.!.!.!.!.!.!.!.!.!.!.!.!.E.R.| [ R m n Z ../././.!.!.E.| [ E Z m 5 ,                             ",
"                m._.}._._.~.~.Q.Y.=.[ H m 0 2 1 U           ,.% 5 ! /.!.!.!.!.!.!.!.!.!...Z 9 5 N E  .:.!.!.!.!.!.!.!.!.!.!.!.Q.R...[ ] Z m n Z $./././.!.!.E.E.| ` W B 6 1                             ",
"              B.h -.x.'._.>.:.*.=.[ R b : 5 t.                v , N ] ~.~.~.~.!.!.!.!.!.| E : % b R [ U.R.!.R.R.!.!.Q.Q.!.Q.Q.*.U.[ ` R B b 5 V | !.!.!.!.!.!.Q.U. .W R N 5 B.                          ",
"              i @ e ~ >.>.;.[ ` ! R N d k /                   B.$ 2 J $.E./.~.!.!.!.!.!...E 2 % 6 Z ` [ R.R.R.U.Q.Q.Q.Q.Q.Q.| [ ` W W C m b ; n } !.!.!.!.!.!.!.U.| [ W H n I                           ",
"            M.X . o 8 F J J V V M b d 2.z.                    N.- - w E $./.!.~.!.!.!.!...E 9 - > N R ` [ | U.U.| *.| ....|  .` R R Z m b 6 # 0 { ~.!.!.!.!.!.!.Y.R.|  .W H w T                         ",
"            C.& O X o % % * 1 8 y 4 U                         I 5 5 : w ] :.!.~.!.!.!.!.| W m ; # 6 C W ` ` ` ` ] ] ] ] ] ] ` E C B m n b 6 # > ] :.!.!.!.!.!.!.!.R.R.R. .W B w r.                      ",
"                  = . . . . i                                 5 0 6 > 5 N ] :.~.!.!.!.!.=.` B : + > m Z H H H R H H H H Z R Z Z m m n b b 5 # - S  .E.Q.!.!.!.!.!.!.!.!.R.` Z 6 4                       ",
"                  y.z l l z d.                              v.< b b 6 > 5 J { :.!.!.!.!.$.] C > # ; b m B m m m m B m m N N N N n b b n b : # + 2 ' Q.Q.!.!.!.!.!.!.!.!.R.[ Z 0 <                       ",
"                                                            i., b b b 5 : w K } /././.!.=.[ E b - - > b b b b m m b n b b n n n b b b b 5 ; % + % K E.Q.!.!.!.!.!.!.!.!.R. .E N 4 k.                    ",
"                                                            3.< 6 b b 0 5 : n ` =./././.E.=.] C 6 # - > 6 6 b b b b b b b b b n b b 6 5 > % ; - % G $.Q.!.!.!.~.!.!.!.!.U.R.[ R n g                     ",
"                                                            A 5 b b b b 0 : 5 N ] E.!.!.E.E.[ H 6 # + - - 5 6 b b b b b b b b b b 5 , - - ; 5 > < b K =./././.~.!.!.!.!.E.U.| E M < i.                  ",
"                                                          Y w 6 b b b b b 6 : : K E.!.!.!.E. .R b # O 8 f q 5 5 6 6 6 6 6 6 6 5 6 q y % # > b 6 5 < M ] { $.:.~.!.!.!.!.!.U.| W m ; y.                  ",
"                                                          4 5 b b b b b b b : % V :.Q.!.!.E. .H w % z c <.3.8 ; ; - , , - - - ; 2 ,.1.l - 6 b b 6 < 5 M M E $.~././.!.!.!./.{ Q N ; r.                  ",
"                                                          * 5 b b b b b b b : % M [ E.!.E.E. .H b - J.      x y y y y y y y y 4 u     y.- 6 b b b 6 ; - - M ' [ | E././././.| ! N 2 ,.                  ",
"                                                          , 6 b b b b b b b 5 y d K *.Q.!.E. .H b %                                   V.- 6 b b b b 5 - - 5 M N Q =.E./././.=.[ H b k                   ",
"                                                          < 6 b b b b b b 0 D l.3.r { Q.E.E. .H 0 -                                   H.- 6 n b b b b 6 5 d 9.e._ ' ] | /././.$.! B w g                 ",
"                                                        / 2 6 b b b b b 0 r b.    g ] :.!.E.[ H b *                                   G.- 6 b b b b b 6 2 u.    D._ L Q :./.!.=.[ Z 5 1                 ",
"                                                      F.q 6 b b b b b b w 7.      8.' :.E.E. .E 0 -                                   H.- 6 b b b b b 5 <         i./ ) ] =.!.=.] Z 6 *                 ",
"                                                      ,.; b b b b b b 6 D           L ` :.:.[ H 6 *                                   K.- 6 b b b b b 5 1               ~ ] /.=.[ Z 6 1                 ",
"                                                      U < b b b b b 6 a G.          U K :.:. .H b <                                   K.- 6 b b b b 0 q ,.              b.' #.=.[ H 0 3                 ",
"                                                    z.a 5 b b b n 0 5 p.            c S :.:.[ E b *                                   J.- 6 0 b m b 5 p                   j.P | | ] M 8                 ",
"                                                    k 6 b b b b b 5 I               I C :.:. .Z 6 - XX                                J.- 6 b b b 0 ; f                     _ ! | { C e                 ",
"                                                    , 5 b b b b 6 a                 c J :.E. .Z b 1                                   J., 6 b b b b : U                     .XP ] { G s                 ",
"                                                    < 6 b b b 6 q u.                U C ....] B w x                                   J.- 6 b b b 5 p C.                      b.~ ] Z s                 ",
"                                                  T 5 6 b b 0 5 r.                  k V | [ R b q                                     C.- 6 b b 6 2 w.                          f.V B p                 ",
"                                                w.a 6 w 5 2 5 T                     s V  .] B 5 y                                     9.< 0 b 0 6 , P.                          v.5 9 3                 ",
"                                              u.s 5 0 0 2 4 s                     4.* M ] E N : f                                   y.g 2 6 6 b 5 3                             d.# % t                 ",
"                                        = O O * ; : 5 5 g 1.B.                v O O o 9 V N 0 s s.                            t @ O & < > 5 5 > 7 Y                             1.. & y.                ",
"                                      v & O O @ % , , y                     d.= O X O 1 2 9 4 s.                            v & O X O & , , - * g                               l O v                   ",
"                                        l l l c v Y ^ 1.                      v z v v ^ 2.2.2.                              y.v v v v <.,.,.1.1.                                1.v                     ",
"                                                                                                                                                                                                        ",
"                                                                                                                                                                                                        "
};
