/* XPM */
static char *_190d99c52194f5dabc02e98830ce954qeSZSn5pzQ2wltig[] = {
/* columns rows colors chars-per-pixel */
"100 70 182 2 ",
"   c None",
".  c #080707",
"X  c #0A0907",
"o  c #0D0C0C",
"O  c #170B07",
"+  c #180D07",
"@  c #150D09",
"#  c #1D0F0A",
"$  c #14110E",
"%  c #1D120C",
"&  c #141414",
"*  c #1C1512",
"=  c #1B1A1A",
"-  c #24130C",
";  c #2C160F",
":  c #29180F",
">  c #241511",
",  c #2B1710",
"<  c #241A14",
"1  c #2D1A13",
"2  c #241D1B",
"3  c #2A1E1A",
"4  c #331C13",
"5  c #3B1E14",
"6  c #341F19",
"7  c #2A2516",
"8  c #27201E",
"9  c #2C221D",
"0  c #362016",
"q  c #3D2116",
"w  c #34221C",
"e  c #3C241A",
"r  c #3F281B",
"t  c #252424",
"y  c #2D2522",
"u  c #2C2C2C",
"i  c #312723",
"p  c #392721",
"a  c #332925",
"s  c #3C2B24",
"d  c #342C2A",
"f  c #3B2F2B",
"g  c #35302E",
"h  c #3C312D",
"j  c gray20",
"k  c #3B3533",
"l  c #3D3937",
"z  c #3C3B3A",
"x  c #422217",
"c  c #442518",
"v  c #492719",
"b  c #452A1A",
"n  c #4C2A1B",
"m  c #532E1D",
"M  c #4F311F",
"N  c #56311E",
"B  c #59321F",
"V  c #422C24",
"C  c #422F29",
"Z  c #463526",
"A  c #4C3120",
"S  c #42332D",
"D  c #4D372A",
"F  c #4B3A2C",
"G  c #543421",
"H  c #5B3521",
"J  c #503824",
"K  c #5C3A25",
"L  c #533C2B",
"P  c #5E3E2B",
"I  c #423531",
"U  c #433B36",
"Y  c #4B3C35",
"T  c #433D3B",
"R  c #493E3A",
"E  c #603723",
"W  c #633A24",
"Q  c #693E26",
"!  c #653E28",
"~  c #6A3F28",
"^  c #53442C",
"/  c #46403F",
"(  c #4D423E",
")  c #554337",
"_  c #5E4536",
"`  c #564C31",
"'  c #55433A",
"]  c #5B463A",
"[  c #5E493C",
"{  c #6C4027",
"}  c #65422D",
"|  c #6D4229",
" . c #73452B",
".. c #76492D",
"X. c #7C4B2F",
"o. c #7B4C2F",
"O. c #7A4A2E",
"+. c #604332",
"@. c #624A3C",
"#. c #7B4B30",
"$. c #7D4D30",
"%. c #7D4E30",
"&. c #7E4F31",
"*. c #7F4F31",
"=. c #7E4E31",
"-. c #7D4E31",
";. c #6F563A",
":. c #6F5D3E",
">. c #775035",
",. c #7D5233",
"<. c #77573A",
"1. c #474140",
"2. c #414141",
"3. c #484240",
"4. c #4A4340",
"5. c #4B4542",
"6. c #4E4846",
"7. c gray30",
"8. c #504743",
"9. c #504744",
"0. c #514441",
"q. c #524844",
"w. c #504947",
"e. c #574B47",
"r. c #524843",
"t. c #5E4D42",
"y. c #504B48",
"u. c #524D4B",
"i. c #574E4B",
"p. c #524E4D",
"a. c #524C49",
"s. c #5B4D48",
"d. c #5D524E",
"f. c #5B514E",
"g. c #575151",
"h. c #545351",
"j. c #5D5350",
"k. c #5B5452",
"l. c #5D5754",
"z. c #5D5553",
"x. c #5B5857",
"c. c #604F44",
"v. c #635144",
"b. c #615147",
"n. c #60534B",
"m. c #63544A",
"M. c #615551",
"N. c #635B56",
"B. c #695A52",
"V. c #645D5A",
"C. c #7C6841",
"Z. c #776A4B",
"A. c #67615F",
"S. c #786D50",
"D. c #716258",
"F. c #656160",
"G. c #6E6A69",
"H. c #6E6D6C",
"J. c #746962",
"K. c #756860",
"L. c #706F6F",
"P. c #71706F",
"I. c #737171",
"U. c #804F32",
"Y. c #804F32",
"T. c #805032",
"R. c #815033",
"E. c #815133",
"W. c #815033",
"Q. c #825133",
"!. c #825134",
"~. c #835234",
"^. c #825234",
"/. c #835234",
"(. c #845638",
"). c #875F3F",
"_. c #8C623E",
"`. c #876A45",
"'. c #857148",
"]. c #8F754A",
"[. c #93754A",
"{. c #847C69",
/* pixels */
"                                                                                                                                                                                                        ",
"                                                                                                                                                                                                        ",
"                                                                                                                                                                                                        ",
"                                                                                                                                                                                                        ",
"                                                                                                                                                                                                        ",
"                                                                                                                                                                                                        ",
"                                                                                                                                                                                                        ",
"                                                    y 2 2 y d k                                         z g d d u k                                                                                     ",
"                                                j.s 3 , < < < 1 ( g.                                  i.w < < < < w i.                                                                                  ",
"                                            l.r.C q 5 5 5 5 5 5 e k k l u.                        3.l s q 5 5 5 5 q p l u.                                                                              ",
"                                          M.p 6 b m B B H B B B n 6 1 < f k.H.P.L.I.L.I.I.    G.9.w 4 x m H B B G m x 6 w 8.                                                                            ",
"                                      4.f V x b H ~  .~ ~ ~ Q Q H v x x e s a a a y a i a i i a s x x G ~ ~ ~ | ~ Q H c x p y 9 a                                                                       ",
"                                    e.s 0 n B W | O.O.O.U.X.X.O. .W H H N q 1 ; , < ; ; ; 4 ; 4 x B W | O.O.O.o.O.O.{ E H x 6 1 4 S 3.            p.                                                    ",
"                                d.S V q n H |  .X.Q.Q.Q.~.T.U.U.O. . .| Q N n v v n v v v v n n H |  .O.Y.Q.Q.Q.Q.Y.O. .{ H n v v e s k         ' Y ) J.                                                ",
"                                C 4 5 n H  .o.=.Q.~.!.!.~.~.~.~.Q.=.=.%.O.{ W W W W W W W E W E | O.o.Y.~.~.~.~.~.~.Q.o.O.| W W W m 5 4 Y a.7.v.K K K [                                                 ",
"                              a 0 x v B | O.Q.!.!.~.~.~.~.~.~.~.!.!.Q.Q.o.O. . . . . . . . .....X.Q.!.Q.~.~.~.~.~.~.~.Q.Q.X. . . .W m x 6 * * A  ... .J g                                               ",
"                              3 5 v B ~ O.Y.~.~.~.~.~.~.~.~.~.~.~.~.~.~.T.T.T.T.U.U.U.U.U.U.U.U.Q.~.~.~.~.~.~.~.~.~.~.~.~.Q.=.=.U. .W n 5 - : M  . . .M * g                                             ",
"                            s.6 x N W ..U.Y.~.~.~.~.~.~.~.~.~.~.~.~.~.~.~.~.T.~.T.~.T.~.T.~.~.~.!.~.~.~.~.~.~.~.~.~.~.~.~.~.~.~.T.X.Q n 5 ; b B { W | M - w m.                                          ",
"                            f 5 v E  .U.~.~.~.~.~.~.~.~.~.~.~.~.~.~.~.~.~.~.~.~.~.~.~.~.~.~.~.~.~.~.~.~.~.~.~.~.~.~.~.~.~.~.~.~.~.X.| N 4 4 B | W H { A 1 b L B.                                        ",
"                          w.4 x n E ..Y.~.~.~.~.~.~.~.~.~.~.~.~.~.~.~.~.~.~.~.~.~.~.~.~.~.~.~.~.~.~.~.~.~.~.~.~.~.~.~.~.~.~.~.~.T.U.O.W v v | ..W N { K b G W _                                         ",
"                          w.1 x n E ..Q.~.~.~.~.~.~.~.~.~.~.~.~.~.~.~.~.~.~.~.~.~.~.~.~.~.~.~.~.~.~.~.~.~.~.~.~.~.~.~.~.~.~.~.~.~.~.U. .E E ..X.{ W | { H !  .} [                                       ",
"                          5.1 x n W ..!.~.~.~.~.~.~.~.~.~.~.~.~.~.~.~.~.~.~.~.~.~.~.~.~.~.~.~.~.~.~.~.~.~.~.~.~.~.~.~.~.~.~.~.~.~.~.Q.o. .Q X.U.....o...~ ..=.%.} @.                                    ",
"                          5.1 5 v W ..Y.~.~.~.~.~.~.~.~.~.~.~.~.~.~.~.~.~.~.~.~.~.~.~.~.~.~.~.~.~.Q.=.=.~.~.~.~.~.~.~.~.~.~.~.~.~.~.~.~.X.X.U.U.!.Q.Q.=.O.=.Q.Q...P m.                                  ",
"                          5.4 x v W O.Y.~.~.~.~.~.~.~.~.~.~.~.~.~.~.~.~.~.~.~.~.~.~.~.~.~.~.~.~.~.Y.O.O.Q.~.~.~.~.~.~.~.~.!.Q.Q.U.U.~.~.U.U.Q.~.!.!.!.Q.Y.Q.Q.Q.o.! L a.                                ",
"                          7.4 5 n W ..U.~.~.~.~.~.~.~.~.~.~.~.~.~.~.~.~.~.~.~.~.~.~.~.~.~.~.~.~.Y.U. .O.Y.~.~.~.~.~.~.~.~.~.Q.o.U.U.U.U.Y.~.~.~.~.~.~.~.~.Q.Q.=...W r g                                 ",
"                          w.1 x v W O.U.~.~.~.~.~.~.~.~.~.~.~.~.~.~.~.~.~.~.~.~.~.~.~.~.~.~.~.~.~.U...O.~.~.~.~.~.~.~.~.~.!.O.| ~  .U.U.U.U.Q.Q.~.~.~.~.~.Q.Q.O.Q n 1 8                                 ",
"                          w.4 5 v E ..T.~.~.~.~.~.~.~.~.~.~.~.~.~.~.~.~.~.~.~.~.~.~.~.~.~.~.~.~.~.U...O.~.~.~.~.~.~.~.~.!.!...W W Q  . . .O.U.U.Q.~.~.~.~.~.Y. .H q # 2                                 ",
"                          w.1 x n W O.T.~.~.~.~.~.U.U.T.~.~.~.~.~.~.~.~.~.~.~.~.~.~.~.~.~.~.~.~.U.O. .X.!.~.~.~.~.~.~.~.!.*. .m B E W W W Q  .U.Y.Q.~.~.~.~.o.{ N 0 % 2                                 ",
"                          9.4 x v W ..T.~.~.~.~.~.U...U.U.U.~.~.~.~.~.~.~.~.~.~.~.~.~.~.~.~.~.~.U. .Q O.Y.(.~.~.~.~.~.~.!.!.| m n n m m m B W  ...Y.~.~.~.~.Q.O.{ N 0 8                                 ",
"                          Y 4 x v W ..T.~.~.~.~.U...Q  .U.U.~.~.~.~.~.~.~.~.~.~.~.~.~.~.~.~.~.Y.O.Q Q  .Y.~.~.~.~.~.~.~.!.!.| A x x x x x n B H !  .Y.~.~.~.Q.o...| M i                                 ",
"                        k.V 5 v m W ..U.~.~.~.~.U. .B W  .U.U.~.~.~.~.~.~.~.~.~.~.~.~.~.~.~.Y.U.O.W B Q Y.Y.~.~.~.~.~.~.!.!. .A x x 5 5 5 5 v n B Q O.Y.Q.~.~.~.,.%.} F                                 ",
"                        d 5 x n B Q ..U.~.~.~.~.U.Q m N Q O.U.U.~.~.~.~.~.~.~.~.~.~.~.~.~.~.U.U.~ W B Q Y.~.~.~.~.~.~.~.~.!.~ v x 6 1 1 6 ; 5 x v B ~ X.,.~.~.~.~.~.,.:.{.                              ",
"                        3 5 v N W  .o.Q.~.~.~.~.Y.~ n n B  .$.Y.~.~.~.~.~.~.~.~.~.~.~.~.~.Q.o.{ W N N { Q.Q.Q.~.~.~.~.~.~.Y.{ c 5 p k k k a e 6 5 v H  .O.Q.!.!.~.~._.[.Z.                              ",
"                        < 5 m W { ..=.~.~.~.~.~.Y.~ n x B ~  .X.~.~.~.~.~.~.~.~.~.~.~.~.~.o. .B c q N | ,.~.~.~.~.~.~.~.~.,.K 1 2 j.        R < 1 q v H  .=.Q.!.~.~.).[.'.S.                            ",
"                        q n E ~ ..o.Q.~.~.~.~.~.=.W x x m E  ...X.U.T.~.~.~.~.~.~.~.~.~.Y.O.Q m : : N  .Q.~.~.~.~.~.~.Q.,.{ b < T             5.( 6 4 c W  .o.,.~.(.`.`.C.` U                           ",
"                      ' b H ~  .o.Q.~.~.~.~.~.^.*.H ; 4 v m W ~  . .o.T.T.~.T.~.Q.Q.Q.o.O.| W c : : N ..~.~.~.~.~.~.~.Q. .M 1 <                   R a V n K Q { ..>.<.;.^ 7 & z                         ",
"                    i.b H ~  .X.Q.~.~.~.~.~.~.!.#.A > , x v B H W {  .X.X.X.X.X.X.X.X.O. .Q m 5 - : B o.~.~.~.~.!.!.Q...G 0 - 3                     x.0.p b b M M J ^ Z < X X =                         ",
"                    V m Q O.Y.Q.~.~.~.~.~.~.~.!...b - ; x x v n m W Q ~ { { { { { { { { Q B c - - x B o.~.~.~.~.~.,.%.K e 1 4 0 R                       T i i s < % % $ X $ = u                         ",
"                  R q H  .=.Q.~.~.~.~.~.^.^.!.%.H 1 @ , x x x x n N B B B B B B B B B B N n 5 # - v W ..~.~.~.~.!.=.! b 4 4 x 5 3                               t o X . o z                             ",
"                  i x K  .Q.~.~.~.~.~.~.^.^.!. .r O @ ; 5 x x x x v v v v n v v v v v v v x 4 # : m { o.~.~.~.~.*.| n ; 4 5 x 5 ,                                 2.z z 2.                              ",
"                0.e m ~ =.Q.~.~.~.~.!.~.~.~.Q.| 6 + - - ; 5 x x x x x v x x x x x x x x 5 4 # ; x K  .=.~.~.!.*.| A 4 4 5 x x 5 <                                                                       ",
"                i c W ..Y.~.~.~.~.~.!.Q.~.!. .K 4 - ; - - ; , 5 x x x x x x x x x x 5 4 , - O ; m ~ =.!.~.!.!. .G 0 ; 5 x x x 5 1 V.                                                                    ",
"                1 c W ..!.~.~.~.~.~.~.Q.%...K r 4 5 x ; - % 3 6 5 5 5 5 5 5 5 5 5 5 5 w 3 * O ; m | *.!.~.~.*.P 0 1 5 x x x x x 5 Y                                                                     ",
"                , v W O.!.~.~.~.~.Q.Q...K M b 1 4 5 x 5 ; < T I 6 , ; ; 1 , , 1 1 1 h x.V.z * 4 N | *.~.~.~.*.G - 4 5 x v x x x q 6 i.                                                                  ",
"              A.4 n Q O.!.~.!.Q.,...| K 0 : : 4 5 x x x , a   V.d y y i a u a i a a l.      2 4 N | =.Q.!.!...b # ; x x x x x x x 1 3.                                                                  ",
"              Y e H  .$.~.!.Q.Q...K A b 1 - ; 5 x x x x , z                                 2 4 N | =.!.!.#.G 6 > , x x x x x x 5 1 3.                                                                  ",
"            a.q m ~ O.Y.~.Q.| } P ' U S 6 4 5 x x x x x , z                                 2 4 N | =.!.!...b a l s 5 x x x v x x 4 I                                                                   ",
"            a 6 m | =.!.,...P L '       f 4 x x x x x x < z                                 8 4 N | ,.!.,.| Z x.  s.e x x x x x x 5 p M.                                                                ",
"            a 4 N { =.Q...+.v.N.        5.1 5 x x x v 5 , z                                 2 4 m | U.Q...} m.      ' e 0 x x x x x 5 i                                                                 ",
"            y 0 B | =.o.} [             V.6 5 x x x x x , z                                 8 4 N | o.Q.{ F           S q x x x x x 4 <                                                                 ",
"            9 q W ..%.} @.                R 6 x x x x 5 , k                                 8 4 m ~ =.=.K f           l.f 5 x x x x 5 6 V.                                                              ",
"            i b { ..| @.K.                  < 5 x x x x , z                                 2 4 N  .=.,.K a             a.s 5 x x x q 5 S                                                               ",
"            i M |  .+.D.                    3 5 x x x x , l                                 a 6 m | =.=.K a               r.w q x x x x 1 p.                                                            ",
"            w M } } v.                      d 6 5 x x 5 , l                                 1.p n Q ..=.K a                 h q 5 x x x 1 R                                                             ",
"            y b N )                           i 4 x x x , l                                   R q N | O.K s                   f 6 5 q x 4 s                                                             ",
"            y 1 0 5.                          d ; x x x 4 f                                   l.1 n W  .G 9                     S 4 4 5 x q S                                                           ",
"            k * $ z                           5.6 5 5 5 4 9 k u d z                             w x B W b * u u                 V.k s w 5 5 1 k t t u                                                   ",
"              t o t                             I 4 , 1 , > @ & & =                             ( 0 r b 6 @ X & j                   5.S 1 ; , % $ o & 7.                                                ",
"              h.= u                               y 8 3 2 2 = & = t 7.                            g i i 8 = & = u                       9 8 3 = & & = z                                                 ",
"                                                                                                                                                                                                        ",
"                                                                                                                                                                                                        ",
"                                                                                                                                                                                                        ",
"                                                                                                                                                                                                        ",
"                                                                                                                                                                                                        ",
"                                                                                                                                                                                                        ",
"                                                                                                                                                                                                        ",
"                                                                                                                                                                                                        ",
"                                                                                                                                                                                                        ",
"                                                                                                                                                                                                        ",
"                                                                                                                                                                                                        "
};
